<svg width="422" height="86" viewBox="0 0 422 86" fill="none" xmlns="http://www.w3.org/2000/svg">
<rect width="422" height="86" fill="white"/>
<path d="M26.112 42.472C26.112 38.0347 27.072 34.088 28.992 30.632C30.912 27.1333 33.5787 24.424 36.992 22.504C40.448 20.5413 44.352 19.56 48.704 19.56C54.0373 19.56 58.6027 20.968 62.4 23.784C66.1973 26.6 68.736 30.44 70.016 35.304H57.984C57.088 33.4267 55.808 31.9973 54.144 31.016C52.5227 30.0347 50.6667 29.544 48.576 29.544C45.2053 29.544 42.4747 30.7173 40.384 33.064C38.2933 35.4107 37.248 38.5467 37.248 42.472C37.248 46.3973 38.2933 49.5333 40.384 51.88C42.4747 54.2267 45.2053 55.4 48.576 55.4C50.6667 55.4 52.5227 54.9093 54.144 53.928C55.808 52.9467 57.088 51.5173 57.984 49.64H70.016C68.736 54.504 66.1973 58.344 62.4 61.16C58.6027 63.9333 54.0373 65.32 48.704 65.32C44.352 65.32 40.448 64.36 36.992 62.44C33.5787 60.4773 30.912 57.768 28.992 54.312C27.072 50.856 26.112 46.9093 26.112 42.472ZM91.694 65.512C88.1953 65.512 85.038 64.7653 82.222 63.272C79.4487 61.7787 77.2513 59.6453 75.63 56.872C74.0513 54.0987 73.262 50.856 73.262 47.144C73.262 43.4747 74.0727 40.2533 75.694 37.48C77.3153 34.664 79.534 32.5093 82.35 31.016C85.166 29.5227 88.3233 28.776 91.822 28.776C95.3207 28.776 98.478 29.5227 101.294 31.016C104.11 32.5093 106.329 34.664 107.95 37.48C109.571 40.2533 110.382 43.4747 110.382 47.144C110.382 50.8133 109.55 54.056 107.886 56.872C106.265 59.6453 104.025 61.7787 101.166 63.272C98.35 64.7653 95.1927 65.512 91.694 65.512ZM91.694 56.04C93.7847 56.04 95.5553 55.272 97.006 53.736C98.4993 52.2 99.246 50.0027 99.246 47.144C99.246 44.2853 98.5207 42.088 97.07 40.552C95.662 39.016 93.9127 38.248 91.822 38.248C89.6887 38.248 87.918 39.016 86.51 40.552C85.102 42.0453 84.398 44.2427 84.398 47.144C84.398 50.0027 85.0807 52.2 86.446 53.736C87.854 55.272 89.6033 56.04 91.694 56.04ZM129.436 65.512C126.321 65.512 123.548 64.9787 121.116 63.912C118.684 62.8453 116.764 61.3947 115.356 59.56C113.948 57.6827 113.159 55.592 112.988 53.288H123.804C123.932 54.5253 124.508 55.528 125.532 56.296C126.556 57.064 127.815 57.448 129.308 57.448C130.673 57.448 131.719 57.192 132.444 56.68C133.212 56.1253 133.596 55.4213 133.596 54.568C133.596 53.544 133.063 52.7973 131.996 52.328C130.929 51.816 129.201 51.2613 126.812 50.664C124.252 50.0667 122.119 49.448 120.412 48.808C118.705 48.1253 117.233 47.08 115.996 45.672C114.759 44.2213 114.14 42.28 114.14 39.848C114.14 37.8 114.695 35.944 115.804 34.28C116.956 32.5733 118.62 31.2293 120.796 30.248C123.015 29.2667 125.639 28.776 128.668 28.776C133.148 28.776 136.668 29.8853 139.228 32.104C141.831 34.3227 143.324 37.2667 143.708 40.936H133.596C133.425 39.6987 132.871 38.7173 131.932 37.992C131.036 37.2667 129.841 36.904 128.348 36.904C127.068 36.904 126.087 37.16 125.404 37.672C124.721 38.1413 124.38 38.8027 124.38 39.656C124.38 40.68 124.913 41.448 125.98 41.96C127.089 42.472 128.796 42.984 131.1 43.496C133.745 44.1787 135.9 44.8613 137.564 45.544C139.228 46.184 140.679 47.2507 141.916 48.744C143.196 50.1947 143.857 52.1573 143.9 54.632C143.9 56.7227 143.303 58.6 142.108 60.264C140.956 61.8853 139.271 63.1653 137.052 64.104C134.876 65.0427 132.337 65.512 129.436 65.512ZM194.884 28.904C199.321 28.904 202.841 30.248 205.444 32.936C208.089 35.624 209.412 39.3573 209.412 44.136V65H198.532V45.608C198.532 43.304 197.913 41.5333 196.676 40.296C195.481 39.016 193.817 38.376 191.684 38.376C189.55 38.376 187.865 39.016 186.628 40.296C185.433 41.5333 184.836 43.304 184.836 45.608V65H173.956V45.608C173.956 43.304 173.337 41.5333 172.1 40.296C170.905 39.016 169.241 38.376 167.108 38.376C164.974 38.376 163.289 39.016 162.052 40.296C160.857 41.5333 160.26 43.304 160.26 45.608V65H149.316V29.288H160.26V33.768C161.369 32.2747 162.82 31.1013 164.612 30.248C166.404 29.352 168.43 28.904 170.692 28.904C173.38 28.904 175.769 29.48 177.86 30.632C179.993 31.784 181.657 33.4267 182.852 35.56C184.089 33.5973 185.774 31.9973 187.908 30.76C190.041 29.5227 192.366 28.904 194.884 28.904ZM221.29 25.576C219.37 25.576 217.791 25.0213 216.554 23.912C215.359 22.76 214.762 21.352 214.762 19.688C214.762 17.9813 215.359 16.5733 216.554 15.464C217.791 14.312 219.37 13.736 221.29 13.736C223.167 13.736 224.703 14.312 225.898 15.464C227.135 16.5733 227.754 17.9813 227.754 19.688C227.754 21.352 227.135 22.76 225.898 23.912C224.703 25.0213 223.167 25.576 221.29 25.576ZM226.73 29.288V65H215.786V29.288H226.73ZM231.205 47.144C231.205 43.432 231.951 40.1893 233.445 37.416C234.981 34.6427 237.093 32.5093 239.781 31.016C242.511 29.5227 245.626 28.776 249.125 28.776C253.605 28.776 257.338 29.9493 260.325 32.296C263.354 34.6427 265.338 37.9493 266.277 42.216H254.629C253.647 39.4853 251.749 38.12 248.933 38.12C246.927 38.12 245.327 38.9093 244.133 40.488C242.938 42.024 242.341 44.2427 242.341 47.144C242.341 50.0453 242.938 52.2853 244.133 53.864C245.327 55.4 246.927 56.168 248.933 56.168C251.749 56.168 253.647 54.8027 254.629 52.072H266.277C265.338 56.2533 263.354 59.5387 260.325 61.928C257.295 64.3173 253.562 65.512 249.125 65.512C245.626 65.512 242.511 64.7653 239.781 63.272C237.093 61.7787 234.981 59.6453 233.445 56.872C231.951 54.0987 231.205 50.856 231.205 47.144ZM281.795 56.552H296.131V65H270.851V20.072H281.795V56.552ZM305.575 25.576C303.655 25.576 302.076 25.0213 300.839 23.912C299.644 22.76 299.047 21.352 299.047 19.688C299.047 17.9813 299.644 16.5733 300.839 15.464C302.076 14.312 303.655 13.736 305.575 13.736C307.452 13.736 308.988 14.312 310.183 15.464C311.42 16.5733 312.039 17.9813 312.039 19.688C312.039 21.352 311.42 22.76 310.183 23.912C308.988 25.0213 307.452 25.576 305.575 25.576ZM311.015 29.288V65H300.071V29.288H311.015ZM339.426 28.904C343.607 28.904 346.935 30.2693 349.41 33C351.927 35.688 353.186 39.4 353.186 44.136V65H342.306V45.608C342.306 43.2187 341.687 41.3627 340.45 40.04C339.212 38.7173 337.548 38.056 335.458 38.056C333.367 38.056 331.703 38.7173 330.466 40.04C329.228 41.3627 328.61 43.2187 328.61 45.608V65H317.666V29.288H328.61V34.024C329.719 32.4453 331.212 31.208 333.09 30.312C334.967 29.3733 337.079 28.904 339.426 28.904ZM381.335 65L370.455 50.024V65H359.511V17.64H370.455V43.816L381.271 29.288H394.775L379.927 47.208L394.903 65H381.335Z" fill="black"/>
</svg>
